HIERARCHY
ROOT Hips
{
	OFFSET -3.958830 18.904000 13.208200
	CHANNELS 6 Xposition Yposition Zposition Zrotation Yrotation Xrotation 
	JOINT LHipJoint
	{
		OFFSET 0.000000 0.000000 0.000000
		CHANNELS 3 Zrotation Yrotation Xrotation
		JOINT LeftUpLeg
		{
			OFFSET 1.800000 -1.400000 0.085000
			CHANNELS 3 Zrotation Yrotation Xrotation
			JOINT LeftLeg
			{
				OFFSET 2.215000 -6.000000 0.000000
				CHANNELS 3 Zrotation Yrotation Xrotation
				JOINT LeftFoot
				{
					OFFSET 2.500000 -6.900000 0.000000
					CHANNELS 3 Zrotation Yrotation Xrotation
					JOINT LeftToeBase
					{
						OFFSET 0.200000 -0.500000 1.950000
						CHANNELS 3 Zrotation Yrotation Xrotation
						End Site
						{
							OFFSET 0.000000 0.000000 0.000000
						}
					}
				}
			}
		}
	}
	JOINT RHipJoint
	{
		OFFSET 0.000000 0.000000 0.000000
		CHANNELS 3 Zrotation Yrotation Xrotation
		JOINT RightUpLeg
		{
			OFFSET -1.800000 -1.400000 0.085000
			CHANNELS 3 Zrotation Yrotation Xrotation
			JOINT RightLeg
			{
				OFFSET -2.215000 -6.000000 0.000000
				CHANNELS 3 Zrotation Yrotation Xrotation
				JOINT RightFoot
				{
					OFFSET -2.500000 -6.900000 0.000000
					CHANNELS 3 Zrotation Yrotation Xrotation
					JOINT RightToeBase
					{
						OFFSET -0.200000 -0.500000 1.950000
						CHANNELS 3 Zrotation Yrotation Xrotation
						End Site
						{
							OFFSET 0.000000 0.000000 0.000000
						}
					}
				}
			}
		}
	}
	JOINT LowerBack
	{
		OFFSET 0.000000 0.000000 0.000000
		CHANNELS 3 Zrotation Yrotation Xrotation
		JOINT Spine
		{
			OFFSET -0.087000 1.940000 -0.288900
			CHANNELS 3 Zrotation Yrotation Xrotation
			JOINT Spine1
			{
				OFFSET 0.000000 1.950000 0.060000
				CHANNELS 3 Zrotation Yrotation Xrotation
				JOINT Neck
				{
					OFFSET 0.000000 0.000000 0.000000
					CHANNELS 3 Zrotation Yrotation Xrotation
					JOINT Neck1
					{
						OFFSET 0.000000 1.600000 0.340000
						CHANNELS 3 Zrotation Yrotation Xrotation
						JOINT Head
						{
							OFFSET 0.000000 1.667000 -0.240000
							CHANNELS 3 Zrotation Yrotation Xrotation
							End Site
							{
								OFFSET 0.000000 0.000000 0.000000
							}
						}
					}
				}
				JOINT LeftShoulder
				{
					OFFSET 0.000000 0.000000 0.000000
					CHANNELS 3 Zrotation Yrotation Xrotation
					JOINT LeftArm
					{
						OFFSET 2.700000 1.550000 -0.730000
						CHANNELS 3 Zrotation Yrotation Xrotation
						JOINT LeftForeArm
						{
							OFFSET 5.450000 0.000000 0.000000
							CHANNELS 3 Zrotation Yrotation Xrotation
							JOINT LeftHand
							{
								OFFSET 3.450000 0.000000 0.000000
								CHANNELS 3 Zrotation Yrotation Xrotation
								JOINT LeftHandIndex1
								{
									OFFSET 0.750000 0.000000 0.000000
									CHANNELS 3 Zrotation Yrotation Xrotation
									End Site
									{
										OFFSET 0.000000 0.000000 0.000000
									}
								}
							}
						}
					}
				}
				JOINT RightShoulder
				{
					OFFSET 0.000000 0.000000 0.000000
					CHANNELS 3 Zrotation Yrotation Xrotation
					JOINT RightArm
					{
						OFFSET -2.700000 1.550000 -0.730000
						CHANNELS 3 Zrotation Yrotation Xrotation
						JOINT RightForeArm
						{
							OFFSET -5.450000 0.000000 0.000000
							CHANNELS 3 Zrotation Yrotation Xrotation
							JOINT RightHand
							{
								OFFSET -3.450000 0.000000 0.000000
								CHANNELS 3 Zrotation Yrotation Xrotation
								JOINT RightHandIndex1
								{
									OFFSET -0.750000 0.000000 0.000000
									CHANNELS 3 Zrotation Yrotation Xrotation
									End Site
									{
										OFFSET 0.000000 0.000000 0.000000
									}
								}
							}
						}
					}
				}
			}
		}
	}
}
MOTION
Frames: 11
Frame Time: 0.016667
-0.519710 16.025060 -6.282150 -10.401757 -8.913578 -6.213587 -15.925912 10.625963 6.593232 47.462928 -3.031385 -33.764808 -25.440215 22.765767 40.193554 0.863010 12.007630 0.263687 0.486750 0.162990 0.285300 18.258077 -7.835619 2.661917 -12.331852 7.267990 -33.925312 9.175082 -15.014459 53.962898 -1.508685 -8.585902 1.399472 -0.062620 0.031800 0.345890 -2.727986 -3.497114 -9.774147 -18.584521 3.190680 53.383419 3.528652 -0.772478 0.031030 -1.389630 -8.566525 -17.695075 -31.185493 21.828370 42.643616 3.987820 10.362400 -18.638550 -12.467123 -18.115288 9.087236 -30.892349 4.994634 -13.520394 -84.021253 -49.932936 31.037774 -3.235009 3.446272 0.937670 -0.219260 0.363150 0.216390 17.865814 22.558778 11.773802 47.996305 -12.715365 -19.563459 -0.777800 34.894608 -1.022744 1.907701 -1.158493 -0.047510 0.175320 -0.014240 -0.165640 
-0.569450 15.979890 -6.286410 -10.519744 -8.489449 -6.612708 -15.925822 10.544067 6.595338 47.653886 -2.596040 -34.546601 -24.213493 23.192142 42.072737 0.931053 12.113119 0.244002 0.525090 0.215200 0.311150 18.279931 -7.775466 2.730796 -11.897411 7.744711 -34.483225 8.583491 -15.375510 56.135608 -1.609695 -8.942741 1.305567 -0.042490 -0.001040 0.325070 -2.764003 -3.384666 -9.820222 -18.085812 3.095839 54.022558 3.028613 -0.560792 0.446838 -1.117064 -8.705341 -17.987757 -31.572557 22.273067 43.728285 3.421390 10.648290 -17.482940 -14.284216 -18.808078 9.298378 -30.051735 6.943222 -14.043355 -85.546924 -50.540230 32.301976 -3.184762 3.485506 0.913850 -0.234030 0.371670 0.238440 19.065981 23.732981 12.186314 45.449619 -12.701850 -17.969708 -0.829967 32.264910 -0.887845 1.954395 -1.180021 -0.026470 0.156930 -0.063940 -0.160490 
-0.613220 15.929500 -6.274600 -10.733726 -8.198744 -7.437333 -15.895265 10.497459 6.533919 47.518913 -2.131132 -34.992364 -22.147846 23.452070 44.537323 0.991901 12.231550 0.219850 0.537100 0.235050 0.324660 18.314199 -7.795624 2.789418 -11.614772 8.150917 -34.490000 8.307095 -15.965394 58.241208 -1.717727 -9.340744 1.201462 -0.039560 -0.014520 0.308930 -2.856653 -3.165429 -9.845782 -16.837991 2.583856 54.686537 1.706679 -0.334086 0.545801 -0.582490 -8.647262 -18.245026 -31.615638 22.798448 45.314223 3.243750 10.967350 -15.916090 -16.207351 -19.201215 9.460438 -29.212834 9.127463 -14.463473 -87.013028 -51.461053 33.929967 -3.154576 3.503610 0.896270 -0.239120 0.376130 0.249510 19.835011 24.444123 12.499856 44.050032 -13.081758 -17.276416 -0.315210 31.104731 -0.740377 1.984228 -1.184651 -0.015780 0.148960 -0.092140 -0.155290 
-0.656500 15.883760 -6.251740 -10.848564 -8.343668 -8.725648 -15.852861 10.510618 6.401418 47.266079 -1.569135 -34.498574 -19.918945 23.560158 46.880831 0.985524 12.384973 0.176108 0.534480 0.206040 0.338260 18.347091 -7.859146 2.837050 -11.507723 8.652130 -33.894269 8.402534 -16.623819 60.028973 -1.821396 -9.713812 1.094318 -0.038500 -0.008290 0.294680 -2.964885 -2.931527 -9.833758 -15.457215 2.299991 55.455329 0.498460 0.165112 0.417462 -0.265851 -8.636972 -18.258527 -32.275319 23.238226 46.449040 3.589500 10.548400 -15.327110 -17.210254 -18.862949 9.391148 -30.232997 10.394758 -15.059162 -85.845538 -52.327517 33.806442 -3.153917 3.463753 0.929390 -0.247970 0.369250 0.245270 20.133161 24.352398 12.550143 43.270737 -13.936336 -17.577936 1.061069 31.935829 -0.494752 1.961400 -1.168563 -0.049230 0.174380 -0.081660 -0.174980 
-0.704390 15.832190 -6.202360 -10.898206 -8.241419 -9.727303 -15.840805 10.528699 6.342301 47.373025 -0.981099 -34.199535 -18.296584 23.816081 48.855755 1.033680 12.516207 0.142557 0.550750 0.227930 0.353200 18.358114 -7.891130 2.831272 -11.421307 8.885365 -33.111540 8.361061 -17.265401 61.682621 -1.926521 -10.051343 1.012518 -0.028600 -0.015100 0.275920 -2.999706 -2.828937 -9.833381 -13.957215 1.839505 54.893732 -0.394710 0.659349 0.594428 0.152231 -8.357306 -18.542929 -32.673947 23.828053 48.949982 4.252460 10.336200 -13.828630 -18.136058 -18.891367 9.532543 -32.290819 11.306608 -15.839654 -84.145812 -52.914443 32.986859 -3.138093 3.428242 0.934730 -0.256760 0.380050 0.254580 20.161376 24.513128 12.756894 43.115732 -14.855180 -17.877843 2.023030 32.223834 -0.368107 1.958489 -1.159378 -0.050020 0.189040 -0.100500 -0.174300 
-0.752080 15.786210 -6.139880 -10.675544 -8.624342 -10.873939 -15.835437 10.620217 6.210434 47.174575 -0.197351 -33.183433 -16.511479 23.939096 50.564076 1.052843 12.601055 0.100773 0.568090 0.235910 0.377530 18.354339 -7.923386 2.847948 -11.348286 9.354267 -32.265831 8.115765 -17.727503 63.551734 -2.032013 -10.385356 0.927008 -0.024800 -0.043590 0.261960 -3.004340 -2.768858 -9.810455 -12.551926 1.845240 53.809031 -1.221478 1.544364 0.851131 0.778399 -8.038924 -19.005005 -33.041356 24.465229 52.016998 4.656330 10.241920 -12.439370 -19.022753 -18.816409 9.844181 -35.438943 12.616668 -16.989823 -84.883268 -55.328151 34.957192 -3.123735 3.404759 0.961930 -0.275860 0.394600 0.249640 19.768945 24.894694 13.091401 43.817239 -15.504115 -18.304503 2.299938 32.268927 -0.361254 1.951573 -1.144237 -0.053930 0.185440 -0.110470 -0.192740 
-0.803740 15.733810 -6.054350 -10.480637 -8.786049 -12.031977 -15.834733 10.711291 6.092435 47.057725 0.670480 -32.320795 -14.552012 24.012801 52.392000 1.062055 12.711670 0.056272 0.584030 0.239410 0.406000 18.346283 -7.974578 2.836918 -11.285951 9.723586 -31.079485 7.870038 -18.243546 65.405660 -2.147947 -10.732059 0.836207 -0.020170 -0.055720 0.265600 -2.993487 -2.701363 -9.780550 -10.880758 1.718689 52.181000 -2.084310 2.383248 0.669295 1.310117 -7.629286 -18.842302 -32.698787 24.969989 55.835389 4.636620 10.316220 -11.313960 -20.188224 -17.575324 9.475521 -37.756967 13.449892 -17.512274 -82.005346 -55.920671 33.642652 -3.126438 3.364129 0.994950 -0.280100 0.413260 0.244960 19.695769 24.019392 12.878591 43.751041 -15.547776 -17.929044 3.083281 31.229448 -0.211326 1.960694 -1.105696 -0.061620 0.194260 -0.110290 -0.212060 
-0.840700 15.717610 -5.967860 -10.354636 -8.173695 -13.312441 -15.793085 10.882132 5.932385 46.263516 0.949519 -31.851529 -12.013460 23.260913 54.085259 1.015592 12.639818 0.037837 0.609510 0.264820 0.436720 18.345374 -8.187945 2.738668 -11.207076 9.358900 -29.066421 7.614808 -18.527738 66.086283 -2.202794 -10.859198 0.798690 -0.001430 -0.097790 0.251460 -3.032148 -2.581416 -9.674796 -9.121731 1.009699 50.827577 -3.189668 2.595064 0.389161 1.829381 -7.213596 -18.724446 -32.710357 25.825443 59.664140 4.725460 10.419260 -10.400490 -21.558464 -16.515439 9.218913 -40.028420 14.224957 -18.144189 -79.465240 -57.422058 33.194434 -3.091431 3.345308 1.025370 -0.301960 0.434740 0.230190 19.855075 22.970851 12.527088 44.160946 -15.500472 -18.133383 3.549264 31.540184 -0.194775 1.961582 -1.083907 -0.064170 0.191410 -0.115640 -0.236280 
-0.878600 15.688100 -5.874020 -10.162941 -7.106868 -14.067612 -15.770729 11.025154 5.803841 45.344652 1.137099 -32.109093 -9.418373 22.483049 55.916846 0.987493 12.606635 0.031331 0.598690 0.240850 0.446810 18.333616 -8.325405 2.688892 -11.537782 8.932616 -27.772988 7.694468 -19.191319 66.906354 -2.263362 -11.078883 0.737458 -0.011280 -0.103100 0.248290 -3.028910 -2.557286 -9.617915 -7.146731 0.624814 49.090788 -3.924116 3.163975 -0.652551 2.323506 -6.590967 -18.239038 -31.779163 25.839723 63.583482 5.086920 10.155250 -8.466680 -23.445150 -14.872597 8.433126 -40.918268 14.238030 -17.758153 -76.093821 -58.260414 32.252744 -3.087227 3.324206 1.044690 -0.299570 0.438480 0.215200 20.602400 21.106500 12.158094 45.129129 -17.186361 -19.274055 3.435389 33.705469 -0.238332 1.931553 -1.076652 -0.076240 0.192610 -0.102970 -0.254000 
-0.903610 15.659110 -5.772740 -9.757315 -6.412845 -14.732869 -15.745320 11.197037 5.633936 44.302064 1.266212 -31.812591 -7.274733 21.795569 57.269613 0.960549 12.566483 0.039584 0.578270 0.216420 0.443150 18.321254 -8.460919 2.653766 -12.116147 8.508514 -26.835997 7.381908 -19.708589 68.118146 -2.315418 -11.315973 0.678966 -0.011710 -0.087470 0.221700 -3.032261 -2.567914 -9.539387 -4.939107 0.305810 46.983215 -4.533043 3.765044 -1.769561 2.634361 -5.955542 -17.560189 -31.396294 26.372229 66.986254 5.807580 9.888410 -6.234210 -25.350871 -12.929676 7.389846 -40.825472 13.470133 -16.553809 -73.218286 -58.187903 31.228188 -3.101532 3.283031 1.055210 -0.290830 0.426110 0.205970 21.728589 18.677565 11.636135 45.504150 -19.262362 -20.551707 2.407302 37.097136 -0.460990 1.883692 -1.078891 -0.107180 0.221560 -0.088240 -0.266370 
-0.920950 15.639350 -5.673470 -9.051383 -6.008674 -15.646225 -15.738138 11.479343 5.433516 43.011175 1.196542 -31.061704 -5.337018 21.013867 58.398212 0.909104 12.503253 0.042808 0.567220 0.193050 0.458850 18.274943 -8.649576 2.554170 -12.598784 7.884894 -25.381259 6.535058 -19.534473 68.710380 -2.319995 -11.339638 0.672072 -0.010470 -0.090700 0.199040 -2.957869 -2.693757 -9.410778 -3.744601 0.403646 44.649360 -4.550564 4.310736 -2.804728 2.982605 -5.368740 -16.829966 -30.995269 26.756150 70.907440 5.867160 9.680810 -4.809780 -26.944622 -10.659330 6.379307 -41.932570 12.643958 -15.561380 -71.192626 -58.843935 31.079060 -3.115475 3.229144 1.088400 -0.293230 0.426310 0.187890 22.497481 16.129695 10.990408 45.717786 -20.585035 -21.702288 1.533805 40.805449 -0.722262 1.836686 -1.074152 -0.140920 0.250110 -0.072250 -0.292620 
